<svg width="239" height="43" viewBox="0 0 239 43" fill="none" xmlns="http://www.w3.org/2000/svg">
<path d="M32.4068 36.8819C12.1525 25.4436 2.20955 43 0 43H239V0.173043C235.465 -1.52939 224.761 9.7492 219.851 15.6013C212.117 20.3008 196.061 26.1352 193.704 11.8773C191.347 -2.38062 165.225 15.69 152.459 26.5076C145.978 18.2082 138.465 19.2368 135.519 21.4535C120.494 40.6059 112.073 36.1725 109.741 31.5617C100.314 2.62031 88.3821 8.86252 83.5948 15.6013C81.2379 26.8799 74.511 30.941 71.4422 31.5617C62.3094 25.1776 54.3796 28.9016 51.5562 31.5617C42.5339 41.6699 33.5116 36.8819 32.4068 36.8819Z" fill="url(#paint0_linear_21_18002)"/>
<defs>
<linearGradient id="paint0_linear_21_18002" x1="119.5" y1="0" x2="119.5" y2="43" gradientUnits="userSpaceOnUse">
<stop stop-color="#FD818D" stop-opacity="0.54"/>
<stop offset="1" stop-color="#FD818D" stop-opacity="0"/>
</linearGradient>
</defs>
</svg>
