<svg width="24" height="24" viewBox="0 0 24 24" fill="none" xmlns="http://www.w3.org/2000/svg">
<path d="M23.6408 14.9031C22.0379 21.3317 15.5261 25.2441 9.09602 23.641C2.66858 22.0382 -1.24421 15.5267 0.359461 9.09847C1.96163 2.6691 8.47345 -1.24365 14.9016 0.359098C21.3313 1.96185 25.2437 8.4741 23.6408 14.9031Z" fill="#F7931A"/>
<path d="M17.2911 10.2903C17.5299 8.69353 16.3142 7.83515 14.6518 7.26253L15.1911 5.09953L13.8744 4.7714L13.3494 6.8774C13.0033 6.79115 12.6478 6.70978 12.2946 6.62915L12.8233 4.50928L11.5074 4.18115L10.9678 6.3434C10.6813 6.27815 10.4001 6.21365 10.1271 6.14578L10.1286 6.13903L8.31282 5.68565L7.96257 7.0919C7.96257 7.0919 8.93945 7.31578 8.91882 7.32965C9.45207 7.46278 9.54845 7.81565 9.53232 8.0954L8.91807 10.5595C8.95482 10.5689 9.00245 10.5824 9.05495 10.6034C9.01107 10.5925 8.9642 10.5805 8.91582 10.5689L8.05482 14.0208C7.98957 14.1828 7.8242 14.4258 7.45145 14.3335C7.46457 14.3527 6.49445 14.0947 6.49445 14.0947L5.84082 15.6018L7.5542 16.0289C7.87295 16.1088 8.18532 16.1924 8.49282 16.2712L7.94795 18.4589L9.26307 18.787L9.8027 16.6225C10.1619 16.72 10.5107 16.81 10.8519 16.8948L10.3142 19.0492L11.6308 19.3773L12.1757 17.1937C14.4208 17.6185 16.1091 17.4472 16.8197 15.4165C17.3923 13.7815 16.7912 12.8384 15.6099 12.2234C16.4702 12.025 17.1182 11.4592 17.2911 10.2903ZM14.2828 14.5087C13.8759 16.1437 11.1231 15.2598 10.2306 15.0382L10.9536 12.1398C11.8461 12.3625 14.7081 12.8035 14.2828 14.5087ZM14.6901 10.2667C14.3188 11.7539 12.0276 10.9983 11.2843 10.813L11.9398 8.18428C12.6831 8.36953 15.0767 8.71528 14.6901 10.2667Z" fill="white"/>
</svg>
