<svg width="239" height="55" viewBox="0 0 239 55" fill="none" xmlns="http://www.w3.org/2000/svg">
<path d="M32.4068 47.1745C12.1525 32.5442 2.20955 55 0 55H239V0.221335C235.465 -1.9562 224.761 12.4699 219.851 19.9552C212.117 25.9661 196.061 33.4287 193.704 15.1919C191.347 -3.04498 165.225 20.0687 152.459 33.9051C145.978 23.2896 138.465 24.6052 135.519 27.4405C120.494 51.9378 112.073 46.2671 109.741 40.3696C100.314 3.35156 88.3821 11.3358 83.5948 19.9552C81.2379 34.3813 74.511 39.5757 71.4422 40.3696C62.3094 32.2039 54.3796 36.9672 51.5562 40.3696C42.5339 53.2987 33.5116 47.1745 32.4068 47.1745Z" fill="url(#paint0_linear_204_740)"/>
<defs>
<linearGradient id="paint0_linear_204_740" x1="119.5" y1="0" x2="119.5" y2="55" gradientUnits="userSpaceOnUse">
<stop stop-color="#4AC49E" stop-opacity="0.85"/>
<stop offset="1" stop-color="#4AC49E" stop-opacity="0"/>
</linearGradient>
</defs>
</svg>
