<svg width="239" height="47" viewBox="0 0 239 47" fill="none" xmlns="http://www.w3.org/2000/svg">
<path d="M32.4068 11.2961C12.1525 -2.72909 2.20955 46.548 0 46.548H239V14.5687C234.044 28.4437 218.074 13.1812 204.306 21.5062C194.945 8.32493 188.887 2.1479 177.873 6.31041C155.839 14.6378 158.599 21.2184 154.744 20.1284C147.585 18.1042 143.73 11.1667 135.519 20.1284C122.253 39.6105 129.412 14.6354 117.848 11.1667C97.4724 21.5729 91.4147 40.3042 85.9078 29.898C80.9516 26.3256 74.511 4.01161 71.4422 4.77269C62.3094 -3.05532 54.3796 1.51102 51.5562 4.77269C42.5339 17.167 33.5116 11.2961 32.4068 11.2961Z" fill="url(#paint0_linear_21_17982)"/>
<defs>
<linearGradient id="paint0_linear_21_17982" x1="119.5" y1="-6.17645" x2="119.5" y2="46.5487" gradientUnits="userSpaceOnUse">
<stop stop-color="#4AC49E" stop-opacity="0.85"/>
<stop offset="1" stop-color="#4AC49E" stop-opacity="0"/>
</linearGradient>
</defs>
</svg>
