<svg width="24" height="24" viewBox="0 0 24 24" fill="none" xmlns="http://www.w3.org/2000/svg">
<circle cx="12" cy="12" r="12" fill="white"/>
<path d="M7.19994 5.34863L19.9542 14.0572L16.7999 18.7201L4.04565 9.94292L7.19994 5.34863Z" fill="url(#paint0_linear_204_755)"/>
<path d="M19.9542 14.0571C18.8571 15.6342 15.1542 15.0171 11.6571 12.5485C8.09134 10.1485 6.17134 6.92563 7.19991 5.34849C8.29705 3.77135 11.9999 4.38849 15.4971 6.85706C19.0628 9.18849 20.9828 12.4799 19.9542 14.0571Z" fill="url(#paint1_linear_204_755)"/>
<path d="M16.7999 18.6513C15.7028 20.2284 11.9999 19.6113 8.5028 17.1427C5.00566 14.6741 3.01709 11.5198 4.11423 9.87413C5.21137 8.29698 8.91423 8.91413 12.4114 11.3827C15.9085 13.8513 17.8285 17.0741 16.7999 18.6513Z" fill="url(#paint2_linear_204_755)"/>
<path d="M19.9542 14.057L16.7999 18.7198C15.7028 20.297 11.9999 19.6113 8.50276 17.2113C7.81705 16.7313 7.19991 16.2513 6.58276 15.7027C7.06276 15.6341 7.67991 15.3598 8.29705 14.6741C9.39419 13.5084 9.94276 13.2341 10.4228 13.3027C10.9028 13.3027 11.4513 13.7827 12.3428 14.9484C13.2342 16.1141 14.4685 16.457 15.2228 15.8398C15.2913 15.7713 15.3599 15.7713 15.4285 15.7027C16.0456 15.2227 16.2513 15.017 17.4171 12.8227C17.6913 12.2741 18.6513 11.3827 19.9542 11.7941C20.2971 12.6855 20.2971 13.4398 19.9542 14.057Z" fill="#0E0F23"/>
<path fill-rule="evenodd" clip-rule="evenodd" d="M19.4743 13.7829C18.5143 15.1543 15.1543 14.4686 11.9314 12.2057C8.63998 9.94286 6.71998 7.06286 7.67998 5.69143C8.63998 4.32001 12 5.00572 15.2228 7.26858C18.4457 9.53143 20.3657 12.4114 19.4743 13.7829ZM16.4571 11.7257C15.9771 12.4114 14.3314 12.0686 12.6857 10.9714C11.1086 9.87429 10.1486 8.43429 10.6286 7.74858C11.1086 7.06286 12.7543 7.40572 14.4 8.50286C15.9771 9.60001 16.9371 11.04 16.4571 11.7257Z" fill="white"/>
<path d="M6.92565 6.92559C6.92565 6.85702 6.85708 6.78845 6.78851 6.85702C6.71994 6.92559 6.65137 6.92559 6.65137 6.99416C6.71994 7.19987 6.78851 7.33702 6.78851 7.47416C6.78851 7.54273 6.85708 7.6113 6.92565 7.54273C6.99422 7.54273 7.0628 7.47416 6.99422 7.40559C6.99422 7.26844 6.99422 7.1313 6.92565 6.92559Z" fill="white"/>
<path d="M7.26858 8.02276C7.26858 7.95418 7.20001 7.88561 7.13144 7.95418C7.06287 8.02276 7.06287 8.02276 7.06287 8.09133C7.81715 9.80561 9.39429 11.657 11.4514 13.0285C11.52 13.097 11.5886 13.0285 11.6571 13.0285C11.7257 12.9599 11.6571 12.8913 11.6571 12.8228C9.53144 11.4513 8.02287 9.66847 7.26858 8.02276Z" fill="white"/>
<path d="M15.5656 14.7427C15.497 14.7427 15.4285 14.7427 15.4285 14.8112C15.4285 14.8798 15.4285 14.9484 15.497 14.9484C15.7028 15.017 15.977 15.0855 16.1828 15.1541C16.2513 15.1541 16.3199 15.1541 16.3199 15.0855C16.3199 15.017 16.3199 14.9484 16.2513 14.9484C16.0456 14.8798 15.7713 14.8112 15.5656 14.7427Z" fill="white"/>
<path d="M16.8 15.0171C16.7314 15.0171 16.6628 15.0857 16.6628 15.1542C16.6628 15.2228 16.7314 15.2914 16.8 15.2914C17.3486 15.3599 17.9657 15.4285 18.4457 15.3599C18.5143 15.3599 18.5828 15.2914 18.5828 15.2228C18.5828 15.1542 18.5143 15.0857 18.4457 15.0857C17.8971 15.1542 17.3486 15.0857 16.8 15.0171Z" fill="white"/>
<defs>
<linearGradient id="paint0_linear_204_755" x1="9.69882" y1="4.11044" x2="12.2281" y2="12.7958" gradientUnits="userSpaceOnUse">
<stop stop-color="#03B8FF"/>
<stop offset="1" stop-color="#FA52A0"/>
</linearGradient>
<linearGradient id="paint1_linear_204_755" x1="11.7817" y1="3.50365" x2="14.3111" y2="12.1891" gradientUnits="userSpaceOnUse">
<stop stop-color="#03B8FF"/>
<stop offset="1" stop-color="#FA52A0"/>
</linearGradient>
<linearGradient id="paint2_linear_204_755" x1="7.62235" y1="4.71488" x2="10.1517" y2="13.4003" gradientUnits="userSpaceOnUse">
<stop stop-color="#03B8FF"/>
<stop offset="1" stop-color="#FA52A0"/>
</linearGradient>
</defs>
</svg>
