<?xml version="1.0" encoding="UTF-8" standalone="no"?>
<svg
   width="32"
   height="32"
   viewBox="0 0 32 32"
   fill="none"
   version="1.1"
   id="svg27"
   sodipodi:docname="tether.svg"
   inkscape:version="1.1.2 (0a00cf5339, 2022-02-04)"
   xmlns:inkscape="http://www.inkscape.org/namespaces/inkscape"
   xmlns:sodipodi="http://sodipodi.sourceforge.net/DTD/sodipodi-0.dtd"
   xmlns="http://www.w3.org/2000/svg"
   xmlns:svg="http://www.w3.org/2000/svg">
  <sodipodi:namedview
     id="namedview29"
     pagecolor="#ffffff"
     bordercolor="#666666"
     borderopacity="1.0"
     inkscape:pageshadow="2"
     inkscape:pageopacity="0.0"
     inkscape:pagecheckerboard="0"
     showgrid="false"
     inkscape:zoom="10.55"
     inkscape:cx="15.876777"
     inkscape:cy="22.417062"
     inkscape:window-width="1846"
     inkscape:window-height="1016"
     inkscape:window-x="74"
     inkscape:window-y="27"
     inkscape:window-maximized="1"
     inkscape:current-layer="g6" />
  <g
     filter="url(#filter0_d_102_2571)"
     id="g6"
     transform="translate(-4)">
    <circle
       cx="20"
       cy="16"
       fill="#26a17b"
       id="circle2"
       r="16" />
    <path
       d="m 21.7669,17.3527 v -0.0026 c -0.1121,0.0077 -0.6904,0.0411 -1.9772,0.0411 -1.029,0 -1.7506,-0.0283 -2.0059,-0.0411 v 0.0026 c -3.9569,-0.1719 -6.9083,-0.8491 -6.9083,-1.6623 0,-0.8106 2.954,-1.4904 6.9083,-1.6623 v 2.6499 c 0.2579,0.018 1.0004,0.0616 2.0241,0.0616 1.2296,0 1.8443,-0.0513 1.959,-0.0616 v -2.6473 c 3.9491,0.1744 6.8927,0.8516 6.8927,1.6623 0,0.8106 -2.9462,1.4878 -6.8927,1.6622 z m 0,-3.5965 v -2.3703 h 5.5095 V 7.77142 H 12.2769 v 3.61448 h 5.5096 v 2.3703 c -4.478,0.2026 -7.84363,1.0748 -7.84363,2.1215 0,1.0466 3.36823,1.9188 7.84363,2.124 V 25.6 h 3.983 V 18.0017 C 26.2396,17.799 29.6,16.9268 29.6,15.8802 c 0,-1.044 -3.3604,-1.9188 -7.8305,-2.1215"
       fill="#ffffff"
       id="path4" />
  </g>
  <defs
     id="defs25">
    <filter
       id="filter0_d_102_2571"
       x="0"
       y="0"
       width="40"
       height="40"
       filterUnits="userSpaceOnUse"
       color-interpolation-filters="sRGB">
      <feFlood
         flood-opacity="0"
         result="BackgroundImageFix"
         id="feFlood8" />
      <feColorMatrix
         in="SourceAlpha"
         type="matrix"
         values="0 0 0 0 0 0 0 0 0 0 0 0 0 0 0 0 0 0 127 0"
         result="hardAlpha"
         id="feColorMatrix10" />
      <feOffset
         dy="4"
         id="feOffset12" />
      <feGaussianBlur
         stdDeviation="2"
         id="feGaussianBlur14" />
      <feComposite
         in2="hardAlpha"
         operator="out"
         id="feComposite16" />
      <feColorMatrix
         type="matrix"
         values="0 0 0 0 0 0 0 0 0 0 0 0 0 0 0 0 0 0 0.25 0"
         id="feColorMatrix18" />
      <feBlend
         mode="normal"
         in2="BackgroundImageFix"
         result="effect1_dropShadow_102_2571"
         id="feBlend20" />
      <feBlend
         mode="normal"
         in="SourceGraphic"
         in2="effect1_dropShadow_102_2571"
         result="shape"
         id="feBlend22" />
    </filter>
  </defs>
</svg>
